<?xml version="1.0" encoding="iso-8859-1"?>
<!-- Generator: Adobe Illustrator 19.0.0, SVG Export Plug-In . SVG Version: 6.00 Build 0)  -->
<svg version="1.1" id="Capa_1" xmlns="http://www.w3.org/2000/svg" xmlns:xlink="http://www.w3.org/1999/xlink" x="0px" y="0px"
	 viewBox="0 0 512.001 512.001" style="enable-background:new 0 0 512.001 512.001;" xml:space="preserve">
<linearGradient id="SVGID_1_" gradientUnits="userSpaceOnUse" x1="0" y1="258.0005" x2="512.0009" y2="258.0005" gradientTransform="matrix(1 0 0 -1 0 514.0009)">
	<stop  offset="0" style="stop-color:#80D8FF"/>
	<stop  offset="1" style="stop-color:#EA80FC"/>
</linearGradient>
<path style="fill:url(#SVGID_1_);" d="M509.889,483.053l-236-472.019c-7.271-14.552-28.342-14.871-35.777,0l-236,472.019
	c-3.601,7.202-2.532,15.862,2.713,21.972c5.245,6.111,13.641,8.479,21.307,6.01l229.869-74.027l229.869,74.028
	c7.664,2.469,16.063,0.099,21.307-6.01C512.422,498.915,513.49,490.256,509.889,483.053z M236.001,104.704v296.72L59.176,458.37
	L236.001,104.704z M276.001,401.424v-296.72L452.827,458.37L276.001,401.424z"/>
<g>
</g>
<g>
</g>
<g>
</g>
<g>
</g>
<g>
</g>
<g>
</g>
<g>
</g>
<g>
</g>
<g>
</g>
<g>
</g>
<g>
</g>
<g>
</g>
<g>
</g>
<g>
</g>
<g>
</g>
</svg>
